<?xml version="1.0" standalone="no"?><!DOCTYPE svg PUBLIC "-//W3C//DTD SVG 1.1//EN" "http://www.w3.org/Graphics/SVG/1.1/DTD/svg11.dtd"><svg t="1617291556070" class="icon" viewBox="0 0 1024 1024" version="1.1" xmlns="http://www.w3.org/2000/svg" p-id="4282" xmlns:xlink="http://www.w3.org/1999/xlink" width="280" height="280"><defs><style type="text/css"></style></defs><path d="M633.856 608.256l19.456-35.328c11.776-23.552 4.096-51.2-19.456-62.976 0 0-62.976-35.328-90.112-51.2-15.872-7.68-39.424-4.096-47.104 11.776-7.68 15.872-4.096 39.424 11.776 47.104 19.456 11.776 39.424 23.552 54.784 31.232l-31.232 51.2c-7.68 11.776-11.776 27.648-11.776 43.008 0 51.2 39.424 90.112 90.112 90.112H732.16c23.552 0 47.104-19.456 47.104-47.104v-145.408c0-15.872-11.776-31.232-31.232-31.232-15.872 0-31.232 11.776-31.232 31.232V604.16h-82.432v4.096z m-145.408 200.192h455.168v-54.784H488.448v54.784z m145.408-620.032c51.2 0 94.208-43.008 94.208-94.208 0-51.2-43.008-94.208-94.208-94.208-51.2 0-94.208 43.008-94.208 94.208 0 54.784 43.008 94.208 94.208 94.208zM370.688 368.64l117.76-66.56v66.56c0 11.776 7.68 27.648 19.456 35.328 19.456 11.776 121.856 70.656 148.992 86.528 19.456 11.776 39.424 4.096 51.2-15.872 11.776-19.456 4.096-39.424-15.872-51.2-15.872-7.68-90.112-51.2-129.536-74.752V207.872c0-11.776-4.096-27.648-11.776-39.424-23.552-39.424-74.752-54.784-117.76-31.232L245.248 243.2c-47.104 23.552-78.336 66.56-94.208 117.76l-70.656 250.88h137.216v365.056c0 27.648 19.456 47.104 47.104 47.104 27.648 0 47.104-19.456 47.104-47.104v-365.056H445.44L370.688 368.64z m502.272 372.736c39.424 0 70.656-31.232 70.656-70.656 0-39.424-31.232-70.656-70.656-70.656-39.424 0-70.656 31.232-70.656 70.656-4.096 35.328 31.232 70.656 70.656 70.656z m0 0" fill="#d4237a" p-id="4283"></path></svg>