<?xml version="1.0" standalone="no"?><!DOCTYPE svg PUBLIC "-//W3C//DTD SVG 1.1//EN" "http://www.w3.org/Graphics/SVG/1.1/DTD/svg11.dtd"><svg t="1614565895460" class="icon" viewBox="0 0 1024 1024" version="1.1" xmlns="http://www.w3.org/2000/svg" p-id="10154" xmlns:xlink="http://www.w3.org/1999/xlink" width="200" height="200"><defs><style type="text/css"></style></defs><path d="M608.438 151.974c0 20.643 8.496 41.159 23.090 55.754 14.598 14.599 35.11 23.093 55.755 23.094s41.155-8.495 55.755-23.094c14.594-14.594 23.093-35.11 23.094-55.754 0-20.639-8.499-41.155-23.094-55.75-14.598-14.598-35.11-23.093-55.755-23.094s-41.155 8.497-55.755 23.094c-14.594 14.594-23.091 35.11-23.090 55.75v0zM608.438 151.974z" fill="#d4237a" p-id="10155"></path><path d="M865.325 515.053l-7.632-121.451c-0.318-5.722-2.224-11.442-5.086-16.532l-38.789-64.854v-30.522c0-14.945-12.397-27.342-27.342-27.343h-164.687c-14.945 0-27.342 12.398-27.342 27.343v47.686l-95.381 68.039-94.427-71.851v-36.878c0-14.308-11.762-26.075-26.071-26.075h-156.737c-14.308 0-26.070 11.766-26.070 26.075v45.143l-146.245 75.984c-4.134 2.229-6.044 7.312-3.816 11.765l24.16 46.417c2.229 4.134 7.312 6.041 11.765 3.817l114.138-59.453v151.017l-41.65 96.653h41.65v205.376c0 4.774 3.817 8.587 8.581 8.587h52.143c4.764 0 8.582-3.812 8.581-8.587v-205.376h62.631v205.376c0 4.774 3.813 8.587 8.587 8.587h52.138c4.773 0 8.586-3.812 8.587-8.587v-205.376h48.64l-41.013-95.701v-151.65l67.721 51.82 12.402 17.487c2.861 3.816 8.263 4.766 12.080 1.906l0.637-0.319 6.358 4.772c3.816 2.861 9.219 2.224 12.080-1.591l27.342-35.925 50.869-36.243v546.526c0 4.766 3.815 8.582 8.582 8.582h52.781c4.766 0 8.582-3.815 8.582-8.582v-256.886h81.073v256.886c0 4.766 3.815 8.582 8.582 8.582h52.143c4.766 0 8.582-3.815 8.582-8.582v-386.29c0-1.585-0.318-2.861-0.955-4.133v-19.075c4.452 1.909 9.224 2.861 14.308 2.861h2.225c20.988-1.586 36.569-19.074 35.296-39.421v0zM865.325 515.053z" fill="#d4237a" p-id="10156"></path><path d="M226.285 179.318c0 19.392 7.983 38.668 21.693 52.384 13.717 13.714 32.987 21.694 52.384 21.694 19.392 0 38.668-7.983 52.38-21.694 13.712-13.717 21.698-32.991 21.698-52.384 0-19.392-7.986-38.667-21.698-52.379s-32.987-21.698-52.379-21.698c-19.397 0-38.668 7.987-52.384 21.698-13.71 13.712-21.693 32.987-21.693 52.379v0zM226.285 179.318z" fill="#d4237a" p-id="10157"></path><path d="M508.16 192.744c-17.993-41.499-69.135-31.815-69.472 16.35-0.186 26.454 24.352 36.34 40.692 46.914 15.841 10.257 27.118 24.286 28.884 30.26 1.515-5.852 14.074-20.279 28.738-30.545 16.034-11.226 40.877-20.464 40.691-46.917-0.338-48.285-52.37-55.905-69.534-16.063v0zM508.16 192.744z" fill="#d4237a" p-id="10158"></path></svg>