<?xml version="1.0" standalone="no"?><!DOCTYPE svg PUBLIC "-//W3C//DTD SVG 1.1//EN" "http://www.w3.org/Graphics/SVG/1.1/DTD/svg11.dtd"><svg t="1614567589511" class="icon" viewBox="0 0 1024 1024" version="1.1" xmlns="http://www.w3.org/2000/svg" p-id="13171" xmlns:xlink="http://www.w3.org/1999/xlink" width="200" height="200"><defs><style type="text/css"></style></defs><path d="M891.706347 385.189271l-51.142425-88.58412 118.286469-68.189901 50.933254 88.58412z m-219.630048-219.630049L740.2662 47.272753l88.584119 51.142426-68.189901 118.286469zM460.499352 0h102.389437v135.961459h-102.389437zM194.642408 98.62435l88.58412-51.142425 68.1899 118.286469-88.584119 51.142425zM13.604497 316.99937l50.933254-88.58412 118.286469 68.399073-51.142426 88.584119z m37.755451 603.878047h119.332326V545.728377a341.054089 341.054089 0 1 1 682.003593 0v375.253626h119.332327a17.152061 17.152061 0 0 1 16.942889 17.256647v68.1899a16.838304 16.838304 0 0 1-16.942889 16.94289h-920.354489a16.838304 16.838304 0 0 1-16.942889-16.94289v-68.1899a17.152061 17.152061 0 0 1 16.629132-17.256647z m320.032356-325.889157a8.680616 8.680616 0 0 0 5.438458 1.882543h108.246239l-20.917148 141.713674a8.471445 8.471445 0 0 0 7.530173 9.412716 7.425587 7.425587 0 0 0 7.321002-2.719229l173.716909-202.582573a8.366859 8.366859 0 0 0-1.045857-12.131946 7.321002 7.321002 0 0 0-5.438458-1.882543H538.624898l20.917148-141.713674a8.471445 8.471445 0 0 0-7.530174-9.412716 7.425587 7.425587 0 0 0-7.321001 2.719229L370.241861 582.9609a8.366859 8.366859 0 0 0 1.045857 12.131945z" fill="#F23C3C" p-id="13172"></path></svg>