<?xml version="1.0" standalone="no"?><!DOCTYPE svg PUBLIC "-//W3C//DTD SVG 1.1//EN" "http://www.w3.org/Graphics/SVG/1.1/DTD/svg11.dtd"><svg t="1614569116751" class="icon" viewBox="0 0 1024 1024" version="1.1" xmlns="http://www.w3.org/2000/svg" p-id="28621" xmlns:xlink="http://www.w3.org/1999/xlink" width="200" height="200"><defs><style type="text/css"></style></defs><path d="M438.86 660.14h146.28V909H438.86z" fill="#FED046" p-id="28622"></path><path d="M365.33 873h293.33Q732 873 732 947.89v0.22q0 74.89-73.33 74.89H365.33Q292 1023 292 948.11v-0.22Q292 873 365.33 873z m0 0" fill="#FED046" p-id="28623"></path><path d="M804.57 206.86h146.29A73.14 73.14 0 0 1 1024 280v146.85a146.29 146.29 0 0 1-146.29 146.29h-73.14z m-731.43 0h146.28v366.28h-73.14A146.28 146.28 0 0 1 0 426.85V280a73.14 73.14 0 0 1 73.14-73.15z m0 0" fill="#FED046" opacity=".5" p-id="28624"></path><path d="M290 0h444c81.74 0 148 69.74 148 155.76V390.6C882 605.66 716.34 780 512 780S142 605.66 142 390.6V155.76C142 69.74 208.26 0 290 0z m0 0" fill="#FED046" p-id="28625"></path><path d="M546.73 173.25l0.06 0.06a36.58 36.58 0 0 1 0 51.68l-103.5 103.65a36.53 36.53 0 0 1-51.72 0l-0.06-0.06a36.58 36.58 0 0 1 0-51.68L495 173.25a36.54 36.54 0 0 1 51.72 0z m124.86 146.51l0.06 0.06a36.57 36.57 0 0 1 0 51.68L516.44 527a36.55 36.55 0 0 1-51.72 0l-0.06-0.06a36.58 36.58 0 0 1 0-51.68l155.21-155.5a36.56 36.56 0 0 1 51.72 0z m0 0" fill="#FFFFFF" p-id="28626"></path></svg>