<?xml version="1.0" standalone="no"?><!DOCTYPE svg PUBLIC "-//W3C//DTD SVG 1.1//EN" "http://www.w3.org/Graphics/SVG/1.1/DTD/svg11.dtd"><svg t="1611282846959" class="icon" viewBox="0 0 1024 1024" version="1.1" xmlns="http://www.w3.org/2000/svg" p-id="4282" xmlns:xlink="http://www.w3.org/1999/xlink" width="280" height="280"><defs><style type="text/css"></style></defs><path d="M468.8 251.2c-6.4-12.8-17.6-28.8-28.8-38.4-14.4-12.8-28.8 1.6-41.6 9.6-3.2 3.2-6.4 6.4-6.4 11.2-4.8-6.4-11.2-11.2-19.2-9.6-8 0-12.8 4.8-17.6 9.6-4.8 3.2-11.2 8-16 12.8-4.8 6.4-4.8 12.8-1.6 19.2h1.6c11.2 1.6 17.6 9.6 24 17.6 1.6 0 1.6 1.6 1.6 1.6 1.6 0 3.2 1.6 4.8 1.6 3.2 0 4.8 1.6 8 1.6s4.8 3.2 3.2-1.6c3.2 4.8 8 8 14.4 8v12.8c0 12.8 14.4 19.2 24 14.4 14.4-8 28.8-14.4 38.4-27.2 9.6-12.8 19.2-28.8 11.2-43.2zM809.6 444.8c-6.4-1.6-14.4-1.6-22.4-1.6 1.6-1.6 1.6-4.8 1.6-6.4 6.4 1.6 12.8 1.6 19.2-3.2 6.4-6.4 6.4-14.4 4.8-22.4 0-16-20.8-19.2-28.8-9.6-1.6-1.6-3.2-1.6-4.8-1.6-6.4-3.2-12.8-4.8-20.8-4.8-14.4 0-20.8 9.6-32 16-8 4.8-9.6 14.4-4.8 22.4 0 1.6-1.6 1.6-1.6 3.2 0 11.2-1.6 36.8 16 41.6 8 1.6 14.4-1.6 19.2-6.4 3.2-1.6 4.8-4.8 8-6.4-1.6 8 3.2 16 11.2 19.2 9.6 3.2 19.2 8 28.8 11.2 9.6 3.2 20.8-6.4 20.8-16 0-4.8 0-11.2 1.6-16 1.6-11.2-4.8-17.6-16-19.2zM385.6 387.2c-3.2-3.2-6.4-6.4-8-9.6-4.8-6.4-6.4-17.6-14.4-20.8-12.8-8-28.8 1.6-38.4 11.2-1.6 1.6-3.2 4.8-3.2 6.4-1.6-4.8-6.4-8-12.8-8-12.8 0-25.6 6.4-30.4 17.6-9.6 6.4-9.6 24 4.8 28.8 9.6 3.2 20.8 6.4 30.4 9.6 3.2 1.6 4.8 0 8 0 0 6.4 1.6 14.4 1.6 20.8 1.6 11.2 9.6 17.6 20.8 16 4.8-1.6 8-3.2 12.8-4.8h6.4c9.6-3.2 14.4-11.2 19.2-19.2 3.2-8 6.4-14.4 12.8-20.8 6.4-9.6 0-22.4-9.6-27.2zM753.6 598.4c-1.6-6.4-4.8-12.8-11.2-14.4-3.2-1.6-4.8-1.6-8-1.6 9.6-11.2 6.4-32-8-38.4-14.4-6.4-35.2-17.6-51.2-11.2-14.4 4.8-20.8 24-27.2 38.4-1.6 0-1.6 0-3.2 1.6-8 4.8-9.6 14.4-6.4 22.4 4.8 9.6 6.4 17.6 6.4 28.8 0 4.8 1.6 8 4.8 9.6 0-4.8 3.2-9.6 9.6-11.2 6.4-1.6 12.8-1.6 17.6 0 0-3.2 0-6.4-1.6-9.6 1.6-1.6 3.2-1.6 4.8-3.2 0 4.8 1.6 9.6 8 14.4 9.6 6.4 19.2 14.4 30.4 17.6 16 3.2 24-8 27.2-20.8 4.8-9.6 8-16 8-22.4zM312 536c-4.8-8-9.6-14.4-14.4-20.8-6.4-9.6-11.2-19.2-22.4-20.8-11.2-1.6-22.4 6.4-32 11.2-3.2 1.6-4.8 3.2-6.4 6.4-4.8-6.4-12.8-9.6-20.8-4.8-9.6 4.8-16 14.4-19.2 24-6.4 8-4.8 22.4 8 25.6 11.2 3.2 24 8 35.2 12.8 3.2 1.6 4.8 1.6 8 1.6v3.2c0 11.2 4.8 22.4 17.6 25.6 4.8 1.6 8 0 11.2 0 8-3.2 12.8-8 19.2-12.8 6.4-3.2 11.2-6.4 14.4-14.4 1.6-3.2 1.6-6.4 1.6-8 1.6-3.2 3.2-6.4 6.4-9.6 4.8-6.4 0-16-6.4-19.2zM670.4 724.8c-6.4-1.6-12.8-1.6-19.2-1.6 4.8-1.6 8-4.8 8-9.6 1.6-14.4-3.2-28.8-14.4-38.4-9.6 0-19.2 0-27.2-3.2-1.6 0-3.2-1.6-3.2-3.2-1.6 0-3.2 1.6-4.8 1.6-3.2 1.6-4.8 3.2-8 6.4-3.2 0-8 1.6-11.2 4.8-9.6 11.2-22.4 24-27.2 36.8-4.8 12.8 6.4 22.4 4.8 36.8-1.6 12.8 14.4 19.2 24 14.4 4.8-3.2 11.2-8 16-11.2 0 6.4 3.2 12.8 11.2 14.4l28.8 9.6c8 3.2 17.6-3.2 19.2-11.2 1.6-8 4.8-14.4 9.6-20.8 8-9.6 3.2-24-6.4-25.6z" fill="#71B892" p-id="4283"></path><path d="M720 348.8c-4.8-1.6-6.4-6.4-6.4-9.6-8-1.6-16-4.8-22.4-9.6-14.4-8-25.6-17.6-40-24-41.6-19.2-80-30.4-118.4-59.2-6.4-4.8-11.2-4.8-16-4.8-11.2-19.2-46.4-14.4-44.8 11.2 0 8-3.2 14.4-8 20.8 3.2 3.2 3.2 8 0 12.8-1.6 3.2-4.8 8-6.4 12.8-4.8 8-14.4 6.4-19.2 3.2-14.4 11.2-14.4 36.8 8 41.6 4.8 1.6 8 1.6 12.8 3.2 1.6 3.2 4.8 6.4 9.6 9.6 65.6 30.4 129.6 64 193.6 99.2 1.6 0 1.6 1.6 3.2 1.6l1.6 1.6c0 1.6 1.6 3.2 1.6 3.2 3.2 12.8 17.6 19.2 28.8 16 11.2-3.2 17.6-14.4 17.6-25.6 1.6-6.4 3.2-9.6 4.8-12.8-4.8-3.2-6.4-8-4.8-12.8 6.4-19.2 27.2-35.2 48-35.2 1.6-9.6 0-17.6-4.8-25.6-12.8-4.8-25.6-11.2-38.4-17.6zM686.4 523.2v-8c0-14.4-16-17.6-24-12.8h-1.6c-43.2-22.4-86.4-41.6-128-67.2-25.6-14.4-48-32-73.6-41.6-9.6-6.4-20.8-12.8-30.4-17.6v-1.6c-9.6-17.6-36.8-1.6-27.2 16 8 14.4-1.6 24-11.2 33.6-4.8 4.8-8 9.6-11.2 14.4-1.6 3.2-4.8 12.8-8 14.4-17.6 6.4-11.2 32 3.2 32 1.6 0 1.6 1.6 3.2 1.6 80 41.6 161.6 81.6 240 128 8 4.8 22.4 1.6 24-9.6 0 0 1.6-17.6 1.6-19.2 6.4-11.2 14.4-22.4 20.8-35.2 0 0 1.6 0 1.6-1.6 1.6-11.2 9.6-20.8 20.8-25.6zM603.2 654.4c-22.4-32-68.8-43.2-102.4-59.2-49.6-24-99.2-46.4-144-76.8-1.6 0-1.6-1.6-3.2-1.6-9.6-12.8-32-3.2-28.8 14.4 3.2 12.8-4.8 25.6-11.2 35.2-3.2 6.4-12.8 27.2-22.4 27.2-20.8-1.6-20.8 30.4 0 32h8l3.2 3.2c76.8 44.8 153.6 88 233.6 129.6 14.4 8 27.2-8 24-19.2 3.2-3.2 4.8-6.4 4.8-11.2-1.6-16 9.6-30.4 17.6-43.2h1.6c4.8 0 6.4-3.2 8-6.4 9.6-1.6 19.2-12.8 11.2-24z" fill="#FF8C83" p-id="4284"></path><path d="M350.4 827.2c-1.6 0-3.2 0-3.2-1.6-3.2-1.6-4.8-6.4-3.2-11.2l65.6-120c1.6-3.2 6.4-4.8 11.2-3.2 3.2 1.6 4.8 6.4 3.2 11.2l-65.6 120c-1.6 3.2-4.8 4.8-8 4.8zM480 587.2c-1.6 0-3.2 0-3.2-1.6-3.2-1.6-4.8-6.4-3.2-11.2l12.8-24c1.6-3.2 6.4-4.8 11.2-3.2 3.2 1.6 4.8 6.4 3.2 11.2l-12.8 24c-1.6 3.2-4.8 4.8-8 4.8zM556.8 444.8c-1.6 0-3.2 0-3.2-1.6-3.2-1.6-4.8-6.4-3.2-11.2l11.2-22.4c1.6-3.2 6.4-4.8 11.2-3.2 3.2 1.6 4.8 6.4 3.2 11.2l-11.2 22.4c-1.6 3.2-4.8 4.8-8 4.8zM633.6 304c-1.6 0-3.2 0-3.2-1.6-3.2-1.6-4.8-6.4-3.2-11.2l25.6-46.4c1.6-3.2 6.4-4.8 11.2-3.2 3.2 1.6 4.8 6.4 3.2 11.2L640 299.2c-1.6 3.2-3.2 4.8-6.4 4.8z" fill="#020202" p-id="4285"></path><path d="M699.2 484.8c-3.2 0-8-1.6-11.2-3.2l-252.8-137.6c-11.2-6.4-14.4-19.2-9.6-30.4 1.6-1.6 1.6-3.2 3.2-3.2 0 0 17.6-6.4 30.4-32 11.2-24 11.2-44.8 11.2-46.4v-3.2c6.4-11.2 19.2-14.4 30.4-9.6l252.8 137.6c11.2 6.4 14.4 19.2 9.6 30.4 0 1.6-1.6 1.6-1.6 1.6s-17.6 12.8-30.4 35.2c-12.8 24-12.8 43.2-12.8 43.2v3.2c-3.2 11.2-11.2 14.4-19.2 14.4z m-4.8-14.4c4.8 1.6 9.6 1.6 11.2-3.2 0-6.4 1.6-25.6 14.4-49.6 12.8-20.8 28.8-33.6 33.6-38.4 1.6-4.8 0-9.6-4.8-11.2L496 233.6c-4.8-1.6-9.6-1.6-12.8 3.2 0 6.4-1.6 25.6-12.8 49.6-11.2 25.6-28.8 35.2-35.2 38.4-1.6 4.8 0 8 4.8 11.2l254.4 134.4zM406.4 233.6c6.4-9.6 19.2-12.8 28.8-20.8 8-6.4 0-19.2-8-14.4-12.8 9.6-25.6 12.8-35.2 25.6-6.4 9.6 8 17.6 14.4 9.6z" fill="#020202" p-id="4286"></path><path d="M424 209.6c12.8 16 25.6 33.6 40 48 6.4 8 17.6-3.2 11.2-11.2-12.8-14.4-25.6-30.4-36.8-44.8-6.4-8-20.8 0-14.4 8zM368 219.2c17.6 19.2 36.8 36.8 54.4 57.6 6.4 8 17.6-3.2 11.2-11.2-17.6-19.2-36.8-36.8-54.4-57.6-6.4-8-17.6 3.2-11.2 11.2z" fill="#020202" p-id="4287"></path><path d="M366.4 211.2c-6.4 16-22.4 28.8-32 43.2-6.4 8 8 16 14.4 8 11.2-16 27.2-28.8 33.6-46.4 3.2-9.6-12.8-14.4-16-4.8z" fill="#020202" p-id="4288"></path><path d="M336 267.2c17.6 9.6 33.6 20.8 52.8 28.8 9.6 3.2 14.4-11.2 4.8-16-17.6-8-33.6-17.6-49.6-27.2-9.6-4.8-17.6 9.6-8 14.4z" fill="#020202" p-id="4289"></path><path d="M395.2 262.4c0 6.4-3.2 11.2-6.4 16-6.4 8 8 16 14.4 8 4.8-8 8-14.4 9.6-24 0-9.6-16-9.6-17.6 0zM398.4 332.8c17.6-6.4 35.2-11.2 51.2-17.6 9.6-3.2 4.8-19.2-4.8-16-17.6 6.4-35.2 11.2-51.2 17.6-9.6 3.2-4.8 19.2 4.8 16z" fill="#020202" p-id="4290"></path><path d="M390.4 288c1.6 9.6 3.2 19.2 3.2 28.8 0 9.6 16 9.6 16 0 0-11.2-1.6-22.4-3.2-33.6-3.2-9.6-19.2-4.8-16 4.8zM816 440c3.2-6.4 4.8-12.8 4.8-20.8s-1.6-14.4-1.6-22.4c0-9.6-16-9.6-16 0 0 11.2 3.2 24-1.6 35.2-3.2 9.6 11.2 17.6 14.4 8z" fill="#020202" p-id="4291"></path><path d="M811.2 388.8c-17.6-1.6-35.2-3.2-52.8-6.4-9.6-1.6-14.4 14.4-4.8 16 19.2 3.2 36.8 6.4 56 6.4 12.8 1.6 12.8-14.4 1.6-16zM836.8 440c-25.6-3.2-51.2-11.2-76.8-14.4-9.6-1.6-9.6 14.4 0 16 25.6 3.2 51.2 11.2 76.8 14.4 9.6 1.6 9.6-14.4 0-16z" fill="#020202" p-id="4292"></path><path d="M828.8 444.8c-11.2 16-12.8 36.8-20.8 54.4-3.2 9.6 11.2 14.4 16 4.8 6.4-16 8-36.8 19.2-51.2 6.4-8-8-16-14.4-8z" fill="#020202" p-id="4293"></path><path d="M819.2 496c-17.6-8-35.2-16-51.2-27.2-8-6.4-16 8-8 14.4 16 11.2 33.6 19.2 51.2 27.2 9.6 4.8 17.6-9.6 8-14.4z" fill="#020202" p-id="4294"></path><path d="M774.4 444.8c-6.4 6.4-11.2 12.8-14.4 20.8-3.2 9.6 11.2 14.4 16 4.8 1.6-6.4 6.4-9.6 9.6-14.4 8-6.4-4.8-17.6-11.2-11.2zM739.2 488c-4.8-16-9.6-30.4-12.8-46.4-3.2-9.6-17.6-6.4-16 4.8 4.8 16 9.6 30.4 12.8 46.4 3.2 9.6 19.2 6.4 16-4.8z" fill="#020202" p-id="4295"></path><path d="M760 460.8c-9.6 4.8-20.8 9.6-30.4 14.4-9.6 4.8-1.6 19.2 8 14.4 8-4.8 17.6-9.6 25.6-12.8 11.2-3.2 6.4-19.2-3.2-16z" fill="#020202" p-id="4296"></path><path d="M494.4 560h-3.2l-132.8-72c-4.8-3.2-9.6-8-11.2-12.8s-1.6-11.2 1.6-17.6c1.6-1.6 1.6-3.2 3.2-3.2 0 0 17.6-6.4 30.4-32 11.2-24 11.2-44.8 11.2-46.4v-3.2c3.2-4.8 8-9.6 12.8-11.2 6.4-1.6 11.2-1.6 17.6 1.6l132.8 72c3.2 1.6 4.8 6.4 3.2 9.6-1.6 3.2-6.4 4.8-9.6 3.2l-132.8-72c-1.6-1.6-4.8-1.6-6.4 0-1.6 0-3.2 1.6-4.8 3.2 0 6.4-1.6 25.6-12.8 49.6-11.2 25.6-28.8 35.2-35.2 38.4v4.8c0 3.2 1.6 4.8 4.8 4.8l132.8 72c3.2 1.6 4.8 6.4 3.2 9.6 0 0-3.2 1.6-4.8 1.6z" fill="#020202" p-id="4297"></path><path d="M622.4 627.2c-3.2 0-8-1.6-11.2-3.2l-120-65.6c-3.2-1.6-4.8-6.4-3.2-9.6 1.6-3.2 6.4-4.8 9.6-3.2l120 65.6c1.6 1.6 4.8 1.6 6.4 0 1.6 0 3.2-1.6 4.8-3.2 0-6.4 1.6-25.6 14.4-49.6 12.8-20.8 28.8-33.6 33.6-38.4v-6.4c0-3.2-1.6-4.8-4.8-4.8l-120-65.6c-3.2-1.6-4.8-6.4-3.2-9.6 1.6-3.2 6.4-4.8 9.6-3.2l120 65.6c4.8 3.2 9.6 8 11.2 12.8 1.6 6.4 1.6 11.2-1.6 17.6 0 1.6-1.6 1.6-1.6 1.6s-17.6 12.8-30.4 35.2c-12.8 24-12.8 43.2-12.8 43.2v3.2c-3.2 4.8-8 9.6-12.8 11.2-3.2 6.4-6.4 6.4-8 6.4zM329.6 374.4c6.4-9.6 19.2-12.8 28.8-20.8 8-6.4 0-19.2-8-14.4-12.8 9.6-25.6 12.8-35.2 25.6-4.8 9.6 8 17.6 14.4 9.6z" fill="#020202" p-id="4298"></path><path d="M347.2 352c12.8 16 25.6 33.6 40 48 6.4 8 17.6-3.2 11.2-11.2-12.8-14.4-25.6-30.4-36.8-44.8-6.4-8-20.8 0-14.4 8zM292.8 360c17.6 19.2 36.8 36.8 54.4 57.6 6.4 8 17.6-3.2 11.2-11.2-17.6-19.2-36.8-36.8-54.4-57.6-6.4-8-19.2 4.8-11.2 11.2z" fill="#020202" p-id="4299"></path><path d="M289.6 353.6c-6.4 16-22.4 28.8-32 43.2-6.4 8 8 16 14.4 8 11.2-16 27.2-28.8 33.6-46.4 3.2-11.2-12.8-14.4-16-4.8z" fill="#020202" p-id="4300"></path><path d="M259.2 409.6c17.6 9.6 33.6 20.8 52.8 28.8 9.6 3.2 14.4-11.2 4.8-16-17.6-8-33.6-17.6-49.6-27.2-8-4.8-16 8-8 14.4z" fill="#020202" p-id="4301"></path><path d="M318.4 404.8c0 6.4-3.2 11.2-6.4 16-6.4 8 8 16 14.4 8 4.8-8 8-14.4 9.6-24 0-11.2-16-11.2-17.6 0zM321.6 473.6c17.6-6.4 35.2-11.2 51.2-17.6 9.6-3.2 4.8-19.2-4.8-16-17.6 6.4-35.2 11.2-51.2 17.6-8 4.8-4.8 19.2 4.8 16z" fill="#020202" p-id="4302"></path><path d="M313.6 430.4c1.6 9.6 3.2 19.2 3.2 28.8 0 9.6 16 9.6 16 0 0-11.2-1.6-22.4-3.2-33.6-3.2-9.6-17.6-6.4-16 4.8zM740.8 582.4c3.2-6.4 4.8-12.8 4.8-20.8s-1.6-14.4-1.6-22.4c0-9.6-16-9.6-16 0 0 11.2 3.2 24-1.6 35.2-3.2 8 9.6 17.6 14.4 8z" fill="#020202" p-id="4303"></path><path d="M736 531.2c-19.2-1.6-36.8-1.6-56-4.8-9.6-1.6-14.4 14.4-4.8 16 19.2 3.2 40 4.8 59.2 4.8 11.2 0 11.2-16 1.6-16zM760 582.4c-25.6-3.2-51.2-11.2-76.8-14.4-9.6-1.6-9.6 14.4 0 16 25.6 3.2 51.2 11.2 76.8 14.4 9.6 1.6 9.6-14.4 0-16z" fill="#020202" p-id="4304"></path><path d="M753.6 585.6c-11.2 16-12.8 36.8-20.8 54.4-3.2 9.6 11.2 14.4 16 4.8 6.4-16 8-36.8 19.2-51.2 4.8-8-9.6-16-14.4-8z" fill="#020202" p-id="4305"></path><path d="M744 638.4c-17.6-8-35.2-16-51.2-27.2-8-6.4-16 8-8 14.4 16 11.2 33.6 19.2 51.2 27.2 8 3.2 16-11.2 8-14.4z" fill="#020202" p-id="4306"></path><path d="M697.6 587.2c-6.4 6.4-11.2 12.8-14.4 20.8-3.2 9.6 11.2 14.4 16 4.8 1.6-6.4 6.4-9.6 9.6-14.4 8-6.4-3.2-17.6-11.2-11.2zM662.4 630.4c-4.8-16-9.6-30.4-12.8-46.4-3.2-9.6-17.6-6.4-16 4.8 4.8 16 9.6 30.4 12.8 46.4 3.2 9.6 19.2 4.8 16-4.8z" fill="#020202" p-id="4307"></path><path d="M684.8 603.2c-9.6 4.8-20.8 9.6-30.4 14.4-9.6 4.8-1.6 19.2 8 14.4 8-4.8 17.6-9.6 25.6-12.8 9.6-4.8 6.4-20.8-3.2-16z" fill="#020202" p-id="4308"></path><path d="M545.6 768c-3.2 0-8-1.6-11.2-3.2l-252.8-137.6c-4.8-3.2-9.6-8-11.2-12.8-1.6-6.4-1.6-11.2 1.6-17.6 1.6-1.6 1.6-3.2 3.2-3.2 0 0 17.6-6.4 30.4-32 11.2-24 11.2-44.8 11.2-46.4V512c3.2-4.8 8-9.6 12.8-11.2 6.4-1.6 11.2-1.6 17.6 1.6L600 640c11.2 6.4 14.4 19.2 9.6 30.4 0 1.6-1.6 1.6-1.6 1.6s-17.6 12.8-30.4 35.2c-12.8 24-12.8 43.2-12.8 43.2v3.2c-3.2 11.2-11.2 14.4-19.2 14.4zM283.2 606.4v4.8c0 3.2 1.6 4.8 4.8 4.8l131.2 70.4 123.2 65.6c4.8 1.6 9.6 1.6 11.2-3.2 0-6.4 1.6-25.6 14.4-49.6 12.8-20.8 28.8-33.6 33.6-38.4 1.6-4.8 0-9.6-4.8-11.2L344 512c-1.6-1.6-4.8-1.6-6.4 0-1.6 0-3.2 1.6-4.8 3.2 0 6.4-1.6 25.6-12.8 49.6-12.8 28.8-30.4 38.4-36.8 41.6zM252.8 516.8c6.4-9.6 19.2-12.8 28.8-20.8 8-6.4 0-19.2-8-14.4-12.8 9.6-25.6 12.8-35.2 25.6-4.8 9.6 9.6 17.6 14.4 9.6z" fill="#020202" p-id="4309"></path><path d="M270.4 492.8c12.8 16 25.6 33.6 40 48 6.4 8 17.6-3.2 11.2-11.2-12.8-14.4-25.6-30.4-36.8-44.8-6.4-8-20.8 0-14.4 8zM216 502.4c17.6 19.2 36.8 36.8 54.4 57.6 6.4 8 17.6-3.2 11.2-11.2-17.6-19.2-36.8-36.8-54.4-57.6-6.4-8-17.6 3.2-11.2 11.2z" fill="#020202" p-id="4310"></path><path d="M214.4 494.4c-6.4 16-22.4 28.8-32 43.2-6.4 8 8 16 14.4 8 11.2-16 27.2-28.8 33.6-46.4 1.6-9.6-12.8-14.4-16-4.8z" fill="#020202" p-id="4311"></path><path d="M182.4 550.4c17.6 9.6 33.6 20.8 52.8 28.8 9.6 3.2 14.4-11.2 4.8-16-17.6-8-33.6-17.6-49.6-27.2-8-4.8-16 9.6-8 14.4z" fill="#020202" p-id="4312"></path><path d="M241.6 545.6c0 6.4-3.2 11.2-6.4 16-6.4 8 8 16 14.4 8 4.8-8 8-14.4 9.6-24 0-9.6-16-9.6-17.6 0zM244.8 616c17.6-6.4 35.2-11.2 51.2-17.6 9.6-3.2 4.8-19.2-4.8-16-17.6 6.4-35.2 11.2-51.2 17.6-8 3.2-4.8 19.2 4.8 16z" fill="#020202" p-id="4313"></path><path d="M236.8 571.2c1.6 9.6 3.2 19.2 3.2 28.8 0 9.6 16 9.6 16 0 0-11.2-1.6-22.4-3.2-33.6-3.2-9.6-17.6-4.8-16 4.8zM664 723.2c3.2-6.4 4.8-12.8 4.8-20.8s-1.6-14.4-1.6-22.4c0-9.6-16-9.6-16 0 0 11.2 3.2 24-1.6 35.2-3.2 9.6 9.6 17.6 14.4 8z" fill="#020202" p-id="4314"></path><path d="M659.2 672c-19.2-1.6-36.8-3.2-56-6.4-9.6-1.6-14.4 14.4-4.8 16 19.2 3.2 40 4.8 59.2 6.4 11.2 1.6 11.2-14.4 1.6-16zM683.2 723.2c-25.6-3.2-51.2-11.2-76.8-14.4-9.6-1.6-9.6 14.4 0 16 25.6 3.2 51.2 11.2 76.8 14.4 11.2 1.6 9.6-14.4 0-16z" fill="#020202" p-id="4315"></path><path d="M676.8 728c-11.2 16-12.8 36.8-20.8 54.4-3.2 9.6 11.2 14.4 16 4.8 6.4-16 8-36.8 19.2-51.2 4.8-8-8-16-14.4-8z" fill="#020202" p-id="4316"></path><path d="M667.2 779.2c-17.6-8-35.2-16-51.2-27.2-8-6.4-16 8-8 14.4 16 11.2 33.6 19.2 51.2 27.2 8 4.8 16-9.6 8-14.4z" fill="#020202" p-id="4317"></path><path d="M620.8 728c-6.4 6.4-11.2 12.8-14.4 20.8-3.2 9.6 11.2 14.4 16 4.8 1.6-6.4 6.4-9.6 9.6-14.4 8-6.4-3.2-17.6-11.2-11.2zM585.6 771.2c-4.8-16-8-33.6-11.2-49.6-3.2-9.6-17.6-6.4-16 4.8 4.8 16 8 33.6 11.2 49.6 3.2 9.6 19.2 6.4 16-4.8z" fill="#020202" p-id="4318"></path><path d="M608 744c-9.6 4.8-20.8 9.6-30.4 14.4-9.6 4.8-1.6 19.2 8 14.4 8-4.8 17.6-9.6 25.6-12.8 9.6-3.2 6.4-19.2-3.2-16z" fill="#020202" p-id="4319"></path></svg>