<?xml version="1.0" standalone="no"?><!DOCTYPE svg PUBLIC "-//W3C//DTD SVG 1.1//EN" "http://www.w3.org/Graphics/SVG/1.1/DTD/svg11.dtd"><svg t="1611282988059" class="icon" viewBox="0 0 1050 1024" version="1.1" xmlns="http://www.w3.org/2000/svg" p-id="5160" xmlns:xlink="http://www.w3.org/1999/xlink" width="287.109375" height="280"><defs><style type="text/css"></style></defs><path d="M1018.825649 207.054252h-144.199929l-1.163226-1.323671h-106.014024a16.044498 16.044498 0 0 1 0-32.088997H922.558659a16.044498 16.044498 0 0 0 0-32.088997h-119.451291A454.059305 454.059305 0 0 0 103.00568 649.802186H41.434917a16.044498 16.044498 0 0 0 0 32.088997h73.604137a452.174077 452.174077 0 0 0 32.931333 64.177993h174.283364a16.044498 16.044498 0 0 1 0 32.088997h-152.422735a454.259861 454.259861 0 0 0 58.000861 64.177994H28.077872a16.044498 16.044498 0 0 0 0 32.088997h236.656352a16.044498 16.044498 0 0 0 2.005562 0 453.89886 453.89886 0 0 0 633.757687-634.880803H1018.825649a16.044498 16.044498 0 0 0 0-32.088997zM202.561792 632.915351H124.344863a16.044498 16.044498 0 0 1 0-32.088997h78.216929a16.044498 16.044498 0 0 1 0 32.088997z m375.361041-397.101336a16.044498 16.044498 0 0 1-16.044499 16.044499h-72.842022a16.044498 16.044498 0 0 1-16.044499-16.044499 16.044498 16.044498 0 0 1 16.044499-16.044498h72.842022a16.044498 16.044498 0 0 1 16.044499 16.044498z" fill="#E08D55" opacity=".7" p-id="5161"></path><path d="M885.134866 1024a12.033374 12.033374 0 0 1 0-24.066748H1038.881272a12.033374 12.033374 0 0 1 0 24.066748zM829.259901 1024h-49.457167a12.033374 12.033374 0 0 1 0-24.066748h49.457167a12.033374 12.033374 0 0 1 0 24.066748zM529.468448 1024H106.014023a12.033374 12.033374 0 1 1 0-24.066748H741.255827a12.033374 12.033374 0 0 1 0 24.066748zM41.434917 1024H12.033374a12.033374 12.033374 0 0 1 0-24.066748h54.912296a12.033374 12.033374 0 1 1 0 24.066748z" fill="#1E1E1E" p-id="5162"></path><path d="M910.324729 49.737945l-18.932508-4.17157-14.15927 13.236712-1.885229-19.29351L858.380665 30.163657l17.729171-7.781582 3.690235-19.01273 12.875709 14.480159 19.213287-2.406674-9.787144 16.726389 8.222806 17.568726zM33.81378 830.623683l-2.166007-22.301853-19.614399-10.830036 20.496847-8.944808 4.251792-21.980963 14.881272 16.72639 22.22163-2.767676-11.311371 19.33362 9.626699 20.256179-21.860629-4.813349z m-12.715265-32.690666l14.319715 8.02225 1.60445 16.285165 12.033374-11.191037 16.044498 3.529789-6.939245-14.841161 8.262916-14.119158-16.245054 2.045673-10.870148-12.274041-3.088566 16.044498z" fill="#F7D854" p-id="5163"></path><path d="M106.014023 211.386267a19.734733 19.734733 0 1 1 19.694622-19.694622 19.734733 19.734733 0 0 1-19.694622 19.694622z m0-31.407106a11.712484 11.712484 0 1 0 11.672373 11.712484 11.712484 11.712484 0 0 0-11.672373-11.712484z" fill="#25D8EF" p-id="5164"></path><path d="M20.456735 511.458498a4.011125 4.011125 0 0 1 0-8.022249l38.105684-0.521446a4.011125 4.011125 0 0 1 4.011125 4.011124 4.011125 4.011125 0 0 1-4.011125 4.011125l-38.105684 0.521446z" fill="#45EF37" p-id="5165"></path><path d="M39.750245 530.270673a4.011125 4.011125 0 0 1-4.011125-4.011125l-0.521446-38.105684a4.011125 4.011125 0 0 1 4.011125-4.011124 4.011125 4.011125 0 0 1 4.011124 4.011124l0.521446 38.105684a4.011125 4.011125 0 0 1-4.011124 4.011125z" fill="#45EF37" p-id="5166"></path><path d="M1018.825649 445.234831a22.903521 22.903521 0 1 1 22.903522-22.903522A22.903521 22.903521 0 0 1 1018.825649 445.234831z m0-41.795918a18.892397 18.892397 0 1 0 18.892397 18.892396 18.892397 18.892397 0 0 0-18.892397-18.892396z" fill="#F7802F" p-id="5167"></path><path d="M858.380665 916.702417m-27.075091 0a27.075091 27.075091 0 1 0 54.150182 0 27.075091 27.075091 0 1 0-54.150182 0Z" fill="#5886FF" p-id="5168"></path><path d="M160.444984 23.063966a4.011125 4.011125 0 0 0 4.011125-4.011124V4.011125a4.011125 4.011125 0 0 0-8.022249 0v15.041717a4.011125 4.011125 0 0 0 4.011124 4.011124zM148.973168 25.189863a4.011125 4.011125 0 0 0 5.695797-5.695797l-10.62948-10.589369a4.011125 4.011125 0 0 0-5.695797 5.655685zM152.101845 30.765326a4.011125 4.011125 0 0 0-4.011125-4.011125h-15.041717a4.011125 4.011125 0 0 0 0 8.022249h15.001606a4.011125 4.011125 0 0 0 4.051236-4.011124zM148.41161 36.541345l-10.62948 10.62948a4.011125 4.011125 0 0 0 5.695797 5.695797l10.62948-10.62948A4.011125 4.011125 0 0 0 148.41161 36.541345zM159.803204 39.108465a4.011125 4.011125 0 0 0-4.011124 4.011124v15.041718a4.011125 4.011125 0 0 0 8.022249 0v-15.041718a4.011125 4.011125 0 0 0-4.011125-4.011124zM171.234909 36.982569a4.011125 4.011125 0 0 0-5.655685 0 4.011125 4.011125 0 0 0 0 5.695797l10.62948 10.589369a4.011125 4.011125 0 1 0 5.655686-5.655686zM187.159074 27.35587h-15.001606a4.011125 4.011125 0 0 0 0 8.022249h15.001606a4.011125 4.011125 0 1 0 0-8.022249zM171.676133 25.631086l10.62948-10.62948A4.011125 4.011125 0 0 0 176.489483 9.305809L165.980336 20.055623a4.011125 4.011125 0 0 0 5.695797 5.575463z" fill="#FA7F80" p-id="5169"></path><path d="M999.131027 703.350699a4.011125 4.011125 0 0 0 4.011125-4.011124v-15.041718a4.011125 4.011125 0 0 0-8.022249 0v15.001606a4.011125 4.011125 0 0 0 4.011124 4.051236zM987.699322 705.476595a4.011125 4.011125 0 0 0 5.695797-5.695797l-10.669591-10.62948a4.011125 4.011125 0 0 0-5.695797 5.695797zM990.747777 711.052058a4.011125 4.011125 0 0 0-4.011125-4.011124h-15.001606a4.011125 4.011125 0 0 0 0 8.022249H986.736652a4.011125 4.011125 0 0 0 4.011125-4.011125zM987.258099 716.828078l-10.629481 10.589369a4.011125 4.011125 0 0 0 5.695797 5.695797l10.629481-10.62948a4.011125 4.011125 0 0 0 0-5.655686 4.011125 4.011125 0 0 0-5.695797 0zM998.529359 719.395198a4.011125 4.011125 0 0 0-4.011125 4.011124v15.001606a4.011125 4.011125 0 1 0 8.022249 0v-15.001606a4.011125 4.011125 0 0 0-4.011124-4.011124zM1010.001175 717.22919a4.011125 4.011125 0 1 0-5.695797 5.695797l10.62948 10.62948a4.011125 4.011125 0 0 0 5.655686 0 4.011125 4.011125 0 0 0 0-5.695796zM1025.885229 707.642603H1010.8034a4.011125 4.011125 0 0 0 0 8.022249h15.001606a4.011125 4.011125 0 1 0 0-8.022249zM1010.402288 705.95793l10.62948-10.62948a4.011125 4.011125 0 0 0-5.695797-5.695797l-10.62948 10.62948a4.011125 4.011125 0 0 0 5.695797 5.695797z" fill="#C39DF4" p-id="5170"></path><path d="M326.986878 482.137177H842.336167V726.013553a36.100121 36.100121 0 0 1-36.100122 36.100122H362.966665a36.100121 36.100121 0 0 1-36.100121-36.100122v-243.876376h0.120334z" fill="#634944" p-id="5171"></path><path d="M767.207803 482.137177v242.271926a36.822124 36.822124 0 0 1-36.100122 37.584238h61.209762a36.822124 36.822124 0 0 0 36.100121-37.584238v-242.271926z" fill="#493532" p-id="5172"></path><path d="M768.571585 762.113675H325.181872a48.133495 48.133495 0 0 1-48.133496-48.133496v-231.843002a12.033374 12.033374 0 0 1 24.066748 0V713.980179a24.066748 24.066748 0 0 0 24.066748 24.066748h443.389713a24.066748 24.066748 0 0 0 24.066748-24.066748v-107.578361a12.033374 12.033374 0 0 1 24.066747 0V713.980179a48.133495 48.133495 0 0 1-48.133495 48.133496zM804.551373 572.98915a12.033374 12.033374 0 0 1-12.033374-12.033374V482.137177a12.033374 12.033374 0 0 1 24.066748 0v78.818599a12.033374 12.033374 0 0 1-12.033374 12.033374z" fill="#1E1E1E" p-id="5173"></path><path d="M591.841435 493.368326c-69.994124 0-143.036703 0-219.889851-0.481335a12.033374 12.033374 0 0 1 0-24.066747c192.774648 0.802225 362.124329 0.601669 517.675742-0.601669a12.033374 12.033374 0 0 1 0 24.066748c-93.33887 0.521446-192.012535 1.083004-297.785891 1.083003zM329.995221 492.52599l-64.418661-0.361001a12.033374 12.033374 0 0 1 0-24.066748l64.418661 0.361001a12.033374 12.033374 0 0 1 0 24.066748zM220.611853 492.084766h-16.686278a12.033374 12.033374 0 0 1 0-24.066747H220.611853a12.033374 12.033374 0 0 1 0 24.066747z" fill="#1E1E1E" p-id="5174"></path><path d="M414.148615 590.07654h-0.762113a4.011125 4.011125 0 0 1-3.168789-4.693015c5.294684-27.556426 18.250617-41.996475 18.812175-42.598144a4.011125 4.011125 0 0 1 5.936464 5.374907 85.757844 85.757844 0 0 0-16.846723 38.747464 4.011125 4.011125 0 0 1-3.971014 3.168788z" fill="#FFFFFF" p-id="5175"></path><path d="M441.945709 536.848917m-3.650124 0a3.650123 3.650123 0 1 0 7.300247 0 3.650123 3.650123 0 1 0-7.300247 0Z" fill="#FFFFFF" p-id="5176"></path><path d="M508.811156 600.706021m-22.061185 0a22.061185 22.061185 0 1 0 44.12237 0 22.061185 22.061185 0 1 0-44.12237 0Z" fill="#1E1E1E" p-id="5177"></path><path d="M622.125426 600.706021m-22.061185 0a22.061185 22.061185 0 1 0 44.12237 0 22.061185 22.061185 0 1 0-44.12237 0Z" fill="#1E1E1E" p-id="5178"></path><path d="M476.040268 644.828391m-22.061185 0a22.061185 22.061185 0 1 0 44.12237 0 22.061185 22.061185 0 1 0-44.12237 0Z" fill="#5E413A" p-id="5179"></path><path d="M433.041012 761.993341h61.851542v100.478671h-61.851542z" fill="#5E413A" p-id="5180"></path><path d="M665.565905 644.828391m-22.061185 0a22.061185 22.061185 0 1 0 44.122371 0 22.061185 22.061185 0 1 0-44.122371 0Z" fill="#5E413A" p-id="5181"></path><path d="M552.452192 684.297857a20.055623 20.055623 0 0 1-20.055623-20.055623 4.011125 4.011125 0 0 1 8.022249 0 12.033374 12.033374 0 0 0 23.745857 0 4.011125 4.011125 0 0 1 8.02225 0 20.055623 20.055623 0 0 1-19.734733 20.055623z" fill="#1E1E1E" p-id="5182"></path><path d="M584.661522 684.297857a20.055623 20.055623 0 0 1-20.055623-20.055623 4.011125 4.011125 0 0 1 8.022249 0 12.033374 12.033374 0 0 0 23.745858 0 4.011125 4.011125 0 0 1 8.022249 0 20.055623 20.055623 0 0 1-19.734733 20.055623z" fill="#1E1E1E" p-id="5183"></path><path d="M458.150652 755.615653h11.712484v100.478671h-11.712484z" fill="#493532" p-id="5184"></path><path d="M488.03353 862.39179h-85.918289v-45.405931a12.033374 12.033374 0 0 1 24.066748 0V838.325042h37.784794v-76.211367h-37.784794v26.914646a12.033374 12.033374 0 0 1-24.066748 0V738.046927h85.918289z" fill="#1E1E1E" p-id="5185"></path><path d="M644.066278 761.993341h61.851541v100.478671h-61.851541z" fill="#634944" p-id="5186"></path><path d="M669.135806 755.615653h11.712484v100.478671h-11.712484z" fill="#493532" p-id="5187"></path><path d="M699.058796 862.39179h-85.918289v-50.179169a12.033374 12.033374 0 0 1 24.066747 0V838.325042h37.784794v-76.211367h-37.784794v14.199381a12.033374 12.033374 0 0 1-24.066747 0V738.046927h85.918289zM885.134866 369.023464H203.925575a12.033374 12.033374 0 0 1 0-24.066748h681.209291a12.033374 12.033374 0 0 1 0 24.066748z" fill="#1E1E1E" p-id="5188"></path><path d="M309.257707 290.204865m32.770888 0l-0.040111 0q32.770888 0 32.770888 32.770888l0 66.584668q0 32.770888-32.770888 32.770888l0.040111 0q-32.770888 0-32.770888-32.770888l0-66.584668q0-32.770888 32.770888-32.770888Z" fill="#ED753A" p-id="5189"></path><path d="M447.521172 416.434956a59.404755 59.404755 0 0 1 0-118.769399" fill="#E23B44" p-id="5190"></path><path d="M471.748365 302.880019m9.02503 0l90.250304 0q9.02503 0 9.02503 9.02503l0 90.250304q0 9.02503-9.02503 9.02503l-90.250304 0q-9.02503 0-9.02503-9.02503l0-90.250304q0-9.02503 9.02503-9.02503Z" fill="#F9E2DC" p-id="5191"></path><path d="M342.028595 279.495162a4.011125 4.011125 0 0 1-3.168789-1.564338 4.011125 4.011125 0 0 1 0.722003-5.615575c8.423362-6.498022 17.247836-16.886835 10.30859-39.790356-8.38325-27.957538 21.218849-50.21928 22.502409-51.18195A4.011125 4.011125 0 0 1 377.045713 187.800854c-0.240667 0-26.353089 20.055623-19.6144 42.397587 6.337577 20.93807 2.085785 36.822124-13.076266 48.454385a4.011125 4.011125 0 0 1-2.326452 0.842336zM415.632731 279.495162a4.011125 4.011125 0 0 1-2.486897-7.179913c8.463473-6.498022 17.247836-16.886835 10.30859-39.790356-8.38325-27.797094 21.25896-50.21928 22.502409-51.18195a4.011125 4.011125 0 0 1 4.81335 6.457911c-0.280779 0-26.3932 20.055623-19.614399 42.397587 6.337577 20.93807 2.045674 36.822124-13.116378 48.454385a4.011125 4.011125 0 0 1-2.406675 0.842336zM489.357202 279.495162a4.011125 4.011125 0 0 1-3.168789-1.564338 4.011125 4.011125 0 0 1 0.722003-5.615575c8.423362-6.498022 17.207725-16.886835 10.30859-39.790356-8.423362-27.797094 21.218849-50.21928 22.502409-51.18195a4.011125 4.011125 0 0 1 5.575463 0.842336 4.011125 4.011125 0 0 1-0.802225 5.615575c-0.240667 0-26.3932 20.055623-19.614399 42.397587 6.337577 20.93807 2.045674 36.822124-13.076266 48.454385a4.011125 4.011125 0 0 1-2.446786 0.842336zM562.760782 279.495162a4.011125 4.011125 0 0 1-2.446786-7.179913c8.423362-6.498022 17.247836-16.886835 10.30859-39.790356-8.38325-27.797094 21.218849-50.21928 22.502409-51.18195a4.011125 4.011125 0 0 1 4.81335 6.457911c-0.280779 0-26.3932 20.055623-19.6144 42.397587 6.337577 20.978182 2.045674 36.822124-13.116377 48.454385a4.011125 4.011125 0 0 1-2.446786 0.842336zM713.739512 613.300952c2.366564 3.128677 2.607231 6.939246 0.521446 8.503584s-5.695797 0.32089-8.022249-2.767676a18.651729 18.651729 0 0 1-1.724784-10.148145 18.571507 18.571507 0 0 1 9.225587 4.412237zM715.865408 648.157625c1.484116 1.965451 1.60445 4.332015 0.32089 5.334795s-3.569901 0.200556-5.013906-1.764894a11.471816 11.471816 0 0 1-1.083003-6.297466 11.712484 11.712484 0 0 1 5.776019 2.727565z" fill="#FFFFFF" p-id="5192"></path></svg>