<?xml version="1.0" standalone="no"?><!DOCTYPE svg PUBLIC "-//W3C//DTD SVG 1.1//EN" "http://www.w3.org/Graphics/SVG/1.1/DTD/svg11.dtd"><svg t="1611215269020" class="icon" viewBox="0 0 1024 1024" version="1.1" xmlns="http://www.w3.org/2000/svg" p-id="7454" xmlns:xlink="http://www.w3.org/1999/xlink" width="280" height="280"><defs><style type="text/css"></style></defs><path d="M878.508664 972.117977s-128.706307-83.52387-161.329228-179.068108a58.890958 58.890958 0 0 0-39.578825-38.889421c-30.448649-7.159189-60.101833-47.374386-54.568928-78.574308s33.462579-39.950042 22.821019-94.660386c0 0 57.600536-35.442404 32.702468-73.71313 0 0-40.718992 35.088864-73.518683 15.732538a247.221818 247.221818 0 0 0-145.446435-34.735323c-66.633488 3.800557-132.171001-21.831107-107.35248-63.460465a195.136509 195.136509 0 0 1 59.606877-62.576614s31.023152-29.785761 38.83639-39.508117 60.322795 15.909309 84.655199-11.136516a12.170621 12.170621 0 0 1 16.377749-8.043039c13.319627 3.623787 92.62753 5.303103 151.138432-27.929675 0 0 7.008934-21.300797-8.0342-16.351234-15.025458 4.772793-64.034967 19.709866-40.657123-9.545585s33.533287-26.95744 33.533288-26.95744-3.155346-23.598808-17.005284-12.727447c-13.841099 11.048131-58.387163 46.313765-57.68892 22.361417 0.680565-23.775578 3.756365-57.892206 3.756364-57.892206a42.575078 42.575078 0 0 0-23.369007 6.982419c-12.550677 7.689499-57.865691 31.553462-42.769524 4.419252s26.745316-59.483137 66.0855-69.117108c0 0 15.317129-23.333653-10.314535-15.378998s-74.446726 35.795944-84.416559 81.844555-25.879142 26.338744-33.586319 26.869054-47.383224-6.805649-27.001632-46.57892 37.917186-41.806128 37.917186-41.806128 15.591122-19.533096-0.362379-16.969929a91.319432 91.319432 0 0 0-54.551252 46.04861s-21.026803 19.09117-16.501488-5.037948S444.334792 70.767256 516.960786 52.648322c0 0 2.501297-19.26794-8.697088-14.760303s-84.372367 15.025458-104.939568 108.713609c0 0-9.006436 25.985204-16.245172-1.149006-7.203381-27.31098-22.838696-87.766353 41.479103-125.948693 0 0 9.934479-23.775578-5.14401-18.826016-15.025458 4.772793-110.764142 55.947735-41.099047 187.376302 0 0 17.403016 29.520606 2.695744 28.990296a350.632324 350.632324 0 0 1-63.84052 10.517821 71.459311 71.459311 0 0 0-28.78701 0 29.670861 29.670861 0 1 0-20.195984 8.131424 30.236525 30.236525 0 0 0 11.693342-2.386396 14.724949 14.724949 0 0 0-2.209626 13.080987 99.265247 99.265247 0 0 0 34.116628 38.447496c25.852627 18.295705 31.818617 26.338744 9.625132 39.419731s-107.149194 64.874625-107.149194 64.874626-53.61437 25.985204-38.889421 84.23095c0 0 5.541743 13.434527-34.982802-5.214717l-64.883464-27.222595s-23.369007-15.378998-38.279564 2.563166a100.555669 100.555669 0 0 1-29.069842 25.012969 36.184839 36.184839 0 0 0-8.838505 39.154576c7.883946 25.631664 25.331155 112.867706 90.850991 183.045435a128.379282 128.379282 0 0 0 38.730328 49.672397s15.096166-27.13421 11.94082-50.733018c0 0 16.386588-8.043039 2.695744-28.725141l-22.980113-20.770486s-61.692764-70.442883-57.945237-105.973672c0 0 22.158132-13.080987 99.716011 63.902389s157.979435 107.034293 277.193188 84.407721c0 0 65.351905 79.369773 197.823415 127.274469a50.379477 50.379477 0 0 1 25.189738 19.798251c10.28802 15.467383 100.166775 116.314723 171.272546 155.380915 0 0 16.713613 31.111537 35.716398 39.066191 0.035354 0 18.428283-35.088864 4.984917-51.882023z m-329.172435-743.22987a215.898157 215.898157 0 0 1 35.981554-19.533095 8.838505 8.838505 0 0 1 10.977422 9.368815l7.875108 46.04861s9.377654 18.118935-18.613891 18.56086-35.628013-25.012969-42.168506-38.624266 5.948314-15.820924 5.948313-15.820924z m-41.620519 2.298012a10.296858 10.296858 0 0 1 12.550677 7.247574 77.690457 77.690457 0 0 0 7.609953 25.543279c6.85868 14.406763-22.175809 7.689499-45.633201-7.51273s14.291862-24.571043 25.472571-25.278123z" p-id="7455" fill="#d4237a"></path></svg>