<?xml version="1.0" encoding="utf-8"?>
<!-- Generator: Adobe Illustrator 22.1.0, SVG Export Plug-In . SVG Version: 6.00 Build 0)  -->
<svg version="1.1" id="Icon_Set" xmlns="http://www.w3.org/2000/svg" xmlns:xlink="http://www.w3.org/1999/xlink" x="0px" y="0px"
	 viewBox="0 0 512 512" style="enable-background:new 0 0 512 512;" xml:space="preserve">
<style type="text/css">
	.st0{fill:#F0C48A;}
	.st1{fill:#FD919E;}
	.st2{fill:#4C4372;}
	.st3{fill:#D3E6F8;}
	.st4{fill:#A4CFF2;}
	.st5{fill:#7BABF1;}
	.st6{fill:#FFFFFF;}
	.st7{fill:#E8677D;}
	.st8{fill:none;stroke:#4C4372;stroke-width:12;stroke-linecap:round;stroke-linejoin:round;stroke-miterlimit:10;}
</style>
<g id="Heart_Rate">
	<g>
		<g>
			<circle class="st0" cx="256" cy="256" r="207"/>
		</g>
	</g>
	<g>
		<g>
			<g>
				<path class="st1" d="M138.09,179.744L138.09,179.744c-26.679,26.679-26.679,69.934,0,96.612L256,394.266l117.91-117.91
					c26.679-26.679,26.679-69.934,0-96.612l0,0c-26.679-26.679-69.934-26.679-96.612,0L256,201.041l-21.297-21.297
					C208.024,153.065,164.769,153.065,138.09,179.744z"/>
			</g>
			<g>
				<g>
					<path class="st7" d="M373.91,179.744L373.91,179.744c-18.134-18.134-43.924-23.928-66.964-17.41
						c10.856,3.072,21.104,8.865,29.649,17.409l0,0.001c26.679,26.679,26.679,69.934,0,96.612l-99.253,99.253L256,394.265
						l117.91-117.909C400.589,249.677,400.589,206.423,373.91,179.744z"/>
				</g>
			</g>
			<g>
				<path class="st2" d="M256,400.266c-1.536,0-3.071-0.586-4.243-1.757l-117.91-117.91c-28.976-28.976-28.976-76.122,0-105.098
					c14.036-14.036,32.699-21.766,52.549-21.766s38.513,7.73,52.549,21.766L256,192.555l17.055-17.055
					c28.976-28.976,76.123-28.976,105.098,0c28.976,28.976,28.976,76.123,0,105.098l-117.91,117.91
					C259.071,399.68,257.536,400.266,256,400.266z M186.396,165.764c-15.958,0-31.915,6.074-44.063,18.223
					c-24.297,24.297-24.297,63.83,0,88.127L256,385.78l113.667-113.667c24.297-24.297,24.297-63.83,0-88.127
					c-11.77-11.77-27.418-18.252-44.063-18.252s-32.294,6.481-44.063,18.251l-21.297,21.297c-2.343,2.343-6.142,2.343-8.485,0
					l-21.297-21.297C218.312,171.838,202.354,165.764,186.396,165.764z"/>
			</g>
		</g>
		<g>
			<g>
				<path class="st2" d="M261.932,324.085c-0.045,0-0.091,0-0.137-0.001c-2.419-0.055-4.568-1.557-5.451-3.81l-27.616-70.505
					l-18.258,36.019c-1.022,2.016-3.091,3.287-5.352,3.287H84.313c-3.313,0-6-2.687-6-6s2.687-6,6-6h117.12l22.646-44.675
					c1.069-2.109,3.275-3.387,5.639-3.28c2.362,0.113,4.437,1.603,5.299,3.805l27.265,69.609l24.233-54.47
					c0.958-2.153,3.087-3.545,5.443-3.561c2.361,0.004,4.503,1.35,5.489,3.49l13.395,29.083h124.195c3.313,0,6,2.687,6,6
					s-2.687,6-6,6H307c-2.342,0-4.47-1.363-5.45-3.49l-9.458-20.534l-24.68,55.474C266.448,322.693,264.297,324.085,261.932,324.085
					z"/>
			</g>
			<g>
				<g>
					<circle class="st5" cx="427.687" cy="284.078" r="18.348"/>
				</g>
				<g>
					<path class="st2" d="M427.687,308.425c-13.426,0-24.348-10.922-24.348-24.348c0-13.426,10.922-24.348,24.348-24.348
						c13.425,0,24.348,10.922,24.348,24.348C452.035,297.503,441.112,308.425,427.687,308.425z M427.687,271.729
						c-6.809,0-12.348,5.54-12.348,12.348s5.54,12.348,12.348,12.348s12.348-5.539,12.348-12.348S434.496,271.729,427.687,271.729z"
						/>
				</g>
				<g>
					<circle class="st5" cx="84.313" cy="284.078" r="18.348"/>
				</g>
				<g>
					<path class="st2" d="M84.313,308.425c-13.425,0-24.348-10.922-24.348-24.348c0-13.426,10.922-24.348,24.348-24.348
						c13.426,0,24.348,10.922,24.348,24.348C108.661,297.503,97.739,308.425,84.313,308.425z M84.313,271.729
						c-6.809,0-12.348,5.54-12.348,12.348s5.539,12.348,12.348,12.348s12.348-5.539,12.348-12.348S91.122,271.729,84.313,271.729z"
						/>
				</g>
			</g>
		</g>
	</g>
</g>
</svg>
