<?xml version="1.0" standalone="no"?><!DOCTYPE svg PUBLIC "-//W3C//DTD SVG 1.1//EN" "http://www.w3.org/Graphics/SVG/1.1/DTD/svg11.dtd"><svg t="1611228757277" class="icon" viewBox="0 0 1024 1024" version="1.1" xmlns="http://www.w3.org/2000/svg" p-id="8157" xmlns:xlink="http://www.w3.org/1999/xlink" width="200" height="200"><defs><style type="text/css"></style></defs><path d="M183.4 80H358v251l30.3 25.1 36.4 29.8 23.6 42.3 5.7 28.6V864l-14.6 31.6-25.2 33.9-41.7 15.5H219.4l-83.9-9.2-46.5-40-16.5-85.1 7.5-94.6-7.5-189L86 413.8l64.5-70.2 31.5-16-6-200.7z" fill="#FFDC02" p-id="8158"></path><path d="M525.9 375.8l14.6-20.8 75-2.6 69 20.3 43.9 30 64.1 28.3 82.3-28.3 46.7-16.8 7.6 16.8-76.6 109.8-46.5 24.6-52.5 15.9h-79.1L611 512.5l-52.5-55.7z" fill="#31C0FF" p-id="8159"></path><path d="M395.5 508.7v249.6c0 13.6-8.2 24.7-18.3 24.7-10.1 0-18.3-11-18.3-24.7V508.7c0-13.6 8.2-24.7 18.3-24.7 10.1 0 18.3 11.1 18.3 24.7z" fill="" p-id="8160"></path><path d="M374.6 329V92.9c0-15.4-12.5-27.9-27.9-27.9H188.4c-15.5 0-27.9 12.5-27.9 27.9V329C118.7 344.3 65 384.4 65 464.3v398c1.3 33.5 27 96.8 115.3 96.8h174.6c88.3 0 114-63.3 115.3-97.8v-397c-0.1-79.9-53.9-120.1-95.6-135.3z m65.5 531.7c-0.5 11.6-5.4 28.8-17.6 42.7-14.9 17.1-37.7 25.7-67.7 25.7H180.2c-30 0-52.8-8.6-67.8-25.7-12.1-13.7-17-30.5-17.5-41.7V464.3c0-71.7 53-98.8 75.8-107.1l19.7-7.2V94.9h154.1V350l19.7 7.2c22.8 8.3 75.8 35.4 75.8 107.1v396.4zM959.1 265.9c-0.2-15.3-12.7-27.5-27.9-27.5H523.7c-15.3 0-27.7 12.3-27.9 27.5-0.1 6.4-1.4 157.3 84 244 32.3 32.8 72.8 51.2 119.7 56.6l4 0.3h49.2l2.7-0.3c23.5-2.7 45.3-8.7 65.4-18.1 20-9.4 38.2-22.2 54.3-38.6 85.3-86.5 84.1-237.5 84-243.9z m-105.4 223c-26.6 27-60.8 43.1-101.8 47.9l-1 0.1h-46.2l-2.3-0.2c-40.6-4.8-74.7-20.9-101.3-47.8-72.1-73.2-75.3-203.1-75.4-220.5h403.4c-0.1 17.8-3.4 147.4-75.4 220.5z" fill="" p-id="8161"></path><path d="M712.4 566.6h30v392.5h-30z" fill="" p-id="8162"></path><path d="M902.4 959.1h-350c-6.6 0-12-5.4-12-12v-6c0-6.6 5.4-12 12-12h350.1c6.6 0 12 5.4 12 12v6c-0.1 6.6-5.5 12-12.1 12zM181.1 134.5H350v30H181.1z" fill="" p-id="8163"></path></svg>